<?xml version="1.0" encoding="UTF-8"?>
<svg xmlns="http://www.w3.org/2000/svg" xmlns:xlink="http://www.w3.org/1999/xlink" width="75px" height="24px" viewBox="0 0 75 24" version="1.1">
<g id="surface1">
<path style=" stroke:none;fill-rule:nonzero;fill:rgb(97.647059%,97.647059%,97.647059%);fill-opacity:1;" d="M 12.136719 21.738281 L 11.046875 18.925781 L 21.546875 19.472656 L 21.066406 24 Z M 14.660156 0 L 0 6.996094 L 2.25 17.484375 L 5.25 17.484375 L 4.773438 9.941406 L 5.183594 9.804688 L 7.023438 17.484375 L 10.089844 17.484375 L 10.023438 8.296875 L 10.433594 8.160156 L 12 17.484375 L 15.339844 17.484375 L 16.089844 6.445312 L 16.566406 6.238281 L 17.386719 17.484375 L 21.683594 17.484375 L 23.25 2.125 Z M 72.546875 21.394531 L 68.386719 20.707031 L 68.386719 20.160156 L 72.410156 20.023438 L 72.339844 18.996094 L 67.226562 18.996094 L 66.953125 21.601562 L 71.183594 22.355469 L 71.183594 22.835938 L 66.75 23.039062 L 66.613281 24 L 72.816406 24 Z M 32.726562 20.984375 L 32.660156 21.941406 L 34.160156 22.011719 L 34.160156 22.972656 L 30.953125 22.902344 L 31.089844 20.089844 L 35.453125 20.023438 L 35.386719 18.996094 L 29.726562 18.996094 L 29.25 24 L 35.660156 24 L 35.523438 20.914062 Z M 59.933594 22.835938 L 59.933594 21.941406 L 62.933594 21.875 L 62.933594 20.914062 L 59.863281 20.847656 L 59.863281 19.953125 L 63.886719 19.886719 L 63.886719 18.855469 L 58.433594 18.855469 L 58.296875 24 L 64.023438 24 L 63.953125 22.972656 Z M 55.566406 24 L 55.023438 18.925781 L 53.589844 18.925781 L 51.476562 21.324219 L 49.363281 18.925781 L 47.933594 18.925781 L 47.453125 24 L 49.160156 24 L 49.296875 20.707031 L 51.476562 22.972656 L 53.660156 20.707031 L 53.796875 24 Z M 48.339844 0.34375 L 44.933594 0.34375 L 44.660156 16.046875 L 48.75 16.046875 Z M 62.25 0.34375 L 51.613281 0.34375 L 51.203125 16.046875 L 63 16.046875 Z M 58.976562 12.617188 L 55.226562 12.753906 L 55.023438 3.496094 L 58.976562 3.632812 Z M 75 3.769531 L 74.589844 0.34375 L 64.089844 0.34375 L 64.226562 3.359375 L 67.566406 3.496094 L 67.910156 16.046875 L 72.066406 16.046875 L 70.839844 3.632812 Z M 38.25 16.046875 L 42.75 16.046875 L 39.816406 8.984375 L 42.136719 7.679688 L 40.566406 0.34375 L 29.113281 0.34375 L 28.703125 3.769531 L 31.296875 3.703125 L 30.066406 16.113281 L 34.089844 16.113281 L 34.226562 12.136719 L 37.089844 10.558594 Z M 34.433594 3.496094 L 37.703125 3.429688 L 38.113281 6.582031 L 34.296875 8.367188 Z M 43.296875 24 L 45 24 L 43.636719 18.925781 L 39.546875 18.925781 L 38.183594 24 L 39.886719 24 L 40.160156 22.695312 L 42.953125 22.765625 Z M 40.433594 21.738281 L 40.773438 20.089844 L 42.410156 20.023438 L 42.75 21.667969 Z M 40.433594 21.738281 "/>
</g>
</svg>
