<?xml version="1.0" standalone="no"?><!DOCTYPE svg PUBLIC "-//W3C//DTD SVG 1.1//EN" "http://www.w3.org/Graphics/SVG/1.1/DTD/svg11.dtd"><svg t="1637272575403" class="icon" viewBox="0 0 1024 1024" version="1.1" xmlns="http://www.w3.org/2000/svg" p-id="9314" xmlns:xlink="http://www.w3.org/1999/xlink" width="200" height="200"><defs><style type="text/css"></style></defs><path d="M869.632 776.192H154.304a120.704 120.704 0 0 1-120.576-120.512V184.512A120.704 120.704 0 0 1 154.24 64h715.264a120.704 120.704 0 0 1 120.576 120.512v471.168a120.704 120.704 0 0 1-120.448 120.512zM154.304 129.792a54.976 54.976 0 0 0-54.912 54.912v471.168a54.976 54.976 0 0 0 54.912 54.912h715.264a54.976 54.976 0 0 0 54.912-54.912V184.512a54.976 54.976 0 0 0-54.912-54.912z" p-id="9315"></path><path d="M440.32 499.904l-12.8-33.216H319.872l-12.8 33.984a116.672 116.672 0 0 1-12.8 26.816 20.032 20.032 0 0 1-17.152 6.912 25.024 25.024 0 0 1-17.856-7.424 22.464 22.464 0 0 1-7.808-16.768 38.4 38.4 0 0 1 1.792-11.2c1.216-3.904 3.264-9.216 6.016-16.128l67.712-171.904 6.976-17.792a91.392 91.392 0 0 1 8.64-17.216 35.264 35.264 0 0 1 12.096-11.136 36.864 36.864 0 0 1 18.496-4.224 37.44 37.44 0 0 1 18.688 4.224 36.544 36.544 0 0 1 12.096 10.944 79.296 79.296 0 0 1 7.744 14.336q3.136 7.68 8 20.48l69.184 170.816a85.888 85.888 0 0 1 8.128 28.352 23.488 23.488 0 0 1-7.68 16.896 25.152 25.152 0 0 1-18.496 7.68 24.192 24.192 0 0 1-10.816-2.24 21.568 21.568 0 0 1-7.552-6.4 55.296 55.296 0 0 1-6.4-11.968c-1.984-4.992-4.032-9.664-5.76-13.824zM334.144 426.432h79.104l-39.872-109.248z" p-id="9316"></path><path d="M570.176 265.152h69.888a188.544 188.544 0 0 1 46.784 5.056 86.4 86.4 0 0 1 35.392 19.2 133.888 133.888 0 0 1 41.344 107.648 212.288 212.288 0 0 1-4.16 43.52 128.768 128.768 0 0 1-12.8 35.456 110.208 110.208 0 0 1-22.208 28.224 91.968 91.968 0 0 1-23.296 15.36 105.344 105.344 0 0 1-27.2 8.128 211.2 211.2 0 0 1-32.768 2.304H571.264a43.584 43.584 0 0 1-22.08-4.416 20.352 20.352 0 0 1-9.6-12.416 78.272 78.272 0 0 1-2.304-20.864V298.048a28.16 28.16 0 0 1 32.832-32.896z m20.736 42.432v179.648h40.64c8.896 0 15.872 0 20.928-0.704a64 64 0 0 0 15.68-3.648 43.008 43.008 0 0 0 14.08-8.064 97.984 97.984 0 0 0 26.88-78.336 115.2 115.2 0 0 0-11.84-58.688 52.544 52.544 0 0 0-29.12-24.832 144.256 144.256 0 0 0-41.92-5.312z" p-id="9317"></path><path d="M942.912 959.296H81.088a32.832 32.832 0 1 1 0-65.6h861.824a32.832 32.832 0 1 1 0 65.6z" p-id="9318"></path></svg>