<?xml version="1.0" standalone="no"?><!DOCTYPE svg PUBLIC "-//W3C//DTD SVG 1.1//EN" "http://www.w3.org/Graphics/SVG/1.1/DTD/svg11.dtd"><svg t="1637271929952" class="icon" viewBox="0 0 1024 1024" version="1.1" xmlns="http://www.w3.org/2000/svg" p-id="1871" xmlns:xlink="http://www.w3.org/1999/xlink" width="200" height="200"><defs><style type="text/css"></style></defs><path d="M862.438085 397.431879a1885.869038 1885.869038 0 0 0-268.779847 40.497175c-40.686857 71.557655 45.997962 165.972029-76.91618 221.833473-61.646754-21.386681-79.144948-55.055293-74.260628-100.057424a1046.998981 1046.998981 0 0 0 0.900991-118.219505 2247.166435 2247.166435 0 0 0-278.501065-47.42058c0 42.678522 2.228767 79.002686-0.900991 114.662962-2.655552 28.167824 14.226174 45.334074 46.851533 54.106882a114.947485 114.947485 0 0 1 101.622302 117.745299c3.983329 93.27628 17.687876 185.888673 28.736872 291.16236a3094.382514 3094.382514 0 0 1-286.040938-181.051774c-22.09799-14.890062-13.704548-36.276744-13.704547-54.723349-0.426785-123.720293 9.721219-248.057053-2.655553-370.828934C23.75771 211.306104 188.639066 82.748912 380.550153 42.678522c220.173752-46.329906 454.478837 27.551357 565.869778 173.891266a172.278966 172.278966 0 0 1 39.785867 109.446698q-2.655552 204.524961 0 409.381865a80.093359 80.093359 0 0 1-45.523757 77.058443c-80.614986 48.558674-156.487913 101.053256-253.320737 164.833935 8.820228-99.109012 18.588867-182.332129 22.998981-265.223303 3.556543-68.001111 12.376771-130.83338 120.258591-156.487913 49.507085-11.665463 28.736871-46.61443 31.392423-72.221543 2.655552-27.266833 0.426785-54.81819 0.426786-85.926091z" p-id="1872"></path></svg>