<?xml version="1.0" standalone="no"?><!DOCTYPE svg PUBLIC "-//W3C//DTD SVG 1.1//EN" "http://www.w3.org/Graphics/SVG/1.1/DTD/svg11.dtd"><svg t="1637272297563" class="icon" viewBox="0 0 1092 1024" version="1.1" xmlns="http://www.w3.org/2000/svg" p-id="8172" xmlns:xlink="http://www.w3.org/1999/xlink" width="213.28125" height="200"><defs><style type="text/css"></style></defs><path d="M964.241963 262.592107l59.680024-59.758037-1.872315-22.389761c0-14.900503-3.744629-33.311595-11.155873-55.077251a150.56529 150.56529 0 0 0-29.879019-53.204937c-28.630809-28.630809-72.162121-42.907207-130.671949-42.907207l-59.758037 59.758037c36.120067 21.063538 69.11961 46.651836 98.920615 76.452842 28.630809 28.630809 53.516989 61.006247 74.65854 97.126314zM936.157245 984.915435c24.964193 0 45.793692-8.425415 62.566509-25.198233 16.772817-16.772817 25.198233-37.680329 25.198233-62.566509V447.327137l-119.438062 119.516075v298.634161H187.699528V148.692976h298.634161L605.849764 29.254914H156.026208c-24.964193 0-45.793692 8.425415-62.56651 25.198232A84.878257 84.878257 0 0 0 68.261466 117.019656v780.131037c0 24.964193 8.425415 45.793692 25.198232 62.566509 16.772817 16.772817 37.680329 25.198233 62.56651 25.198233h780.131037zM503.184519 731.060795l410.582965-418.150236a344.505866 344.505866 0 0 0-70.913911-102.587231 344.505866 344.505866 0 0 0-102.665244-70.991925L322.038092 549.992382c37.44629 22.389761 71.616029 49.148255 102.743258 80.353496 29.879019 29.801006 56.013409 63.424653 78.403169 100.714917z m-72.786226 74.658541l20.517447-22.389761a373.604754 373.604754 0 0 0-74.658541-106.409874 373.604754 373.604754 0 0 0-106.409873-74.65854l-22.389761 20.517446v182.940729h182.940728z" p-id="8173"></path></svg>