<?xml version="1.0" standalone="no"?><!DOCTYPE svg PUBLIC "-//W3C//DTD SVG 1.1//EN" "http://www.w3.org/Graphics/SVG/1.1/DTD/svg11.dtd"><svg t="1637274043465" class="icon" viewBox="0 0 1024 1024" version="1.1" xmlns="http://www.w3.org/2000/svg" p-id="29826" xmlns:xlink="http://www.w3.org/1999/xlink" width="200" height="200"><defs><style type="text/css"></style></defs><path d="M781.10648 501.269633l-39.998913 39.971283-403.147044-403.16137-196.510213 3.399416-3.371787 196.511237 403.148067 403.132717-39.98561 39.970261 39.98561 39.972306 79.94052-79.941543 120.220842 120.219818c32.920718 32.893089 86.571531 32.752896 119.658025-0.309038 33.035328-33.059887 33.20315-86.710701 0.281408-119.602766L741.107567 621.18246l79.942567-79.941544-39.943654-39.971283z m40.279298 280.132581c10.953448 10.955494 10.898189 28.846944-0.112564 39.887373-11.066011 11.009729-28.930855 11.066011-39.886349 0.083911L661.167046 701.151633l39.940585-39.971284L821.385778 781.402214z m-240.21758-80.250581l-386.57361-386.616589 2.021025-117.889755 117.919431-2.022049 386.57361 386.589983-119.940456 119.93841z" p-id="29827"></path></svg>