<?xml version="1.0" standalone="no"?><!DOCTYPE svg PUBLIC "-//W3C//DTD SVG 1.1//EN" "http://www.w3.org/Graphics/SVG/1.1/DTD/svg11.dtd"><svg t="1637272368014" class="icon" viewBox="0 0 1024 1024" version="1.1" xmlns="http://www.w3.org/2000/svg" p-id="8342" xmlns:xlink="http://www.w3.org/1999/xlink" width="200" height="200"><defs><style type="text/css"></style></defs><path d="M955.296 339.008l5.488 20.704a454.624 454.624 0 0 1-49.088 349.296C850.56 811.68 751.536 886.656 635.68 918.336c-16.4 55.04-68.672 92.752-127.488 90.496-62.112-2.368-113.488-48.608-121.728-109.552-8.24-60.96 29.04-118.928 88.352-137.36 53.648-16.688 111.232 3.376 142.816 47.824l2.432 3.552 5.488-1.76C798.4 754.4 900.912 576.704 861.12 399.44l-1.312-5.648-3.952-16.352 16.784-2.656a170.944 170.944 0 0 0 59.024-20.992l5.392-3.264 18.24-11.52zM223.92 99.776c57.2 22.208 90.336 81.536 78.864 141.28-11.264 58.624-62.368 101.328-122.352 102.784a347.744 347.744 0 0 0-26.064 123.712l-0.096 8.496 0.064 6.4c2.496 132.112 79.264 251.888 198.976 310.48l5.92 2.832 14.064 6.56-6.464 14a168.384 168.384 0 0 0-15.248 61.312l-0.224 6.368-0.4 23.2-21.552-9.136c-113.648-48.112-203.2-139.088-248.752-252.768a454.336 454.336 0 0 1 1.904-342.944 125.376 125.376 0 0 1-13.584-152.064c32.64-51.504 97.728-72.72 154.944-50.512z m562.944 6.512c50.352-27.296 113.664-18.08 153.904 23.744a125.392 125.392 0 0 1 10.016 162.56c-37.088 49.392-104.736 65.184-160.224 37.44-50.88-25.44-78.016-80.72-68.16-135.056l0.8-4.08-5.52-3.936c-107.392-75.232-248.432-85.872-366.384-26.912l-6.08 3.104-15.456 8.112-6.528-16.064a166.256 166.256 0 0 0-32.16-50.496l-4.08-4.224-18.384-16.048 19.632-10.672C446.928-12.592 641.568 0.432 786.864 106.288z" p-id="8343"></path></svg>