<svg xmlns:xlink="http://www.w3.org/1999/xlink" xmlns="http://www.w3.org/2000/svg" width="20" height="18"><path stroke-width="0px" fill-rule="evenodd" d="M19.456,9.386 L18.024,15.969 C17.787,17.060 16.691,17.756 15.576,17.524 L8.850,16.122 C7.736,15.890 7.025,14.817 7.262,13.726 L8.694,7.143 C8.932,6.053 10.027,5.357 11.142,5.589 L17.868,6.991 C18.982,7.223 19.693,8.295 19.456,9.386 ZM10.991,11.378 C10.153,11.199 9.327,11.735 9.149,12.576 C8.970,13.417 9.505,14.244 10.345,14.423 C11.184,14.602 12.009,14.066 12.187,13.225 C12.366,12.384 11.831,11.557 10.991,11.378 ZM16.200,8.233 C15.351,8.052 14.516,8.595 14.335,9.446 C14.154,10.297 14.696,11.135 15.545,11.316 C16.394,11.497 17.229,10.954 17.410,10.103 C17.590,9.251 17.049,8.414 16.200,8.233 ZM6.957,5.170 C6.737,5.105 6.504,5.075 6.262,5.112 C5.394,5.246 4.799,6.051 4.934,6.911 C5.045,7.620 5.622,8.119 6.305,8.207 L5.401,12.457 L4.230,12.635 C3.104,12.806 2.049,12.052 1.874,10.950 L0.819,4.298 C0.644,3.197 1.414,2.164 2.540,1.993 L9.336,0.960 C10.462,0.789 11.516,1.543 11.691,2.645 L11.811,3.400 L10.256,3.069 C8.764,2.751 7.301,3.691 6.957,5.170 Z"></path></svg>
