<?xml version="1.0" standalone="no"?><!DOCTYPE svg PUBLIC "-//W3C//DTD SVG 1.1//EN" "http://www.w3.org/Graphics/SVG/1.1/DTD/svg11.dtd"><svg t="1637272638800" class="icon" viewBox="0 0 1030 1024" version="1.1" xmlns="http://www.w3.org/2000/svg" p-id="10176" xmlns:xlink="http://www.w3.org/1999/xlink" width="201.171875" height="200"><defs><style type="text/css"></style></defs><path d="M722.446951 520.919868l-150.202052-149.603638c-1.795244-1.745376-3.690223-3.29128-5.535335-4.986788A288.585418 288.585418 0 0 0 213.246035 10.12318l163.516777 163.516776-42.936245 160.175628-160.225496 42.936244L10.134163 213.235052a288.635286 288.635286 0 0 0 368.573496 349.773306l0.897622 0.997357 136.38865 136.38865 0.249339-0.249339 281.105236 283.947705a136.239046 136.239046 0 1 0 192.689486-192.689486l-267.541173-270.383642m204.80738 407.420575l-68.468598 18.351379-55.552817-55.552817 18.301511-68.418731 68.468599-18.351379 55.502949 55.502949z" p-id="10177"></path></svg>